<svg width="19" height="17" viewBox="0 0 19 17" fill="none" xmlns="http://www.w3.org/2000/svg">
<path d="M16.0298 0.165417C16.1023 0.109059 16.1908 0.125161 16.2713 0.125161C16.9154 0.125161 17.5515 0.125161 18.1956 0.125161C16.2794 1.8159 14.637 3.80453 13.0992 5.83342C11.3602 8.1441 9.74993 10.5594 8.23631 13.0311C7.85791 13.643 7.48756 14.263 7.13331 14.8829C6.73075 14.2227 6.32014 13.5706 5.89343 12.9345C4.6294 11.0425 3.30096 9.19879 1.96448 7.35508C2.37508 6.95253 2.78569 6.54192 3.1963 6.13131C4.50058 7.04109 5.80487 7.95087 7.10915 8.86065C8.44564 7.12965 9.89485 5.47917 11.4568 3.9414C12.439 2.98332 13.4696 2.06549 14.5565 1.22012C15.0234 0.857815 15.5145 0.495513 16.0298 0.165417Z" fill="#004AAC"/>
<path d="M5.76461 2.51634C7.04474 2.28286 8.39733 2.40363 9.605 2.8867C10.2652 3.14433 10.8851 3.50663 11.4407 3.94945C9.87874 5.47916 8.42954 7.12965 7.09305 8.86869C5.79681 7.95891 4.49253 7.04108 3.18824 6.13936C2.77764 6.54191 2.36703 6.95252 1.95642 7.35508C3.29291 9.19074 4.62135 11.0425 5.88538 12.9345C6.32014 13.5706 6.7227 14.2227 7.12525 14.8829C7.4795 14.2549 7.84985 13.643 8.22826 13.0311C9.74992 10.5675 11.3521 8.15214 13.0911 5.83341C13.703 6.85591 14.0492 8.03942 14.0814 9.23904C14.1136 10.4226 13.848 11.6222 13.3005 12.6769C12.5517 14.1422 11.2635 15.3257 9.74187 15.9537C8.59056 16.4287 7.31043 16.5897 6.0786 16.4207C4.95144 16.2677 3.85649 15.8329 2.93061 15.1647C1.8437 14.3837 0.982232 13.2888 0.491113 12.0408C-6.67252e-06 10.801 -0.128825 9.41617 0.128812 8.11189C0.394499 6.69488 1.1191 5.36645 2.16575 4.3681C3.14799 3.41807 4.42007 2.76593 5.76461 2.51634Z" fill="#9DC9F9"/>
</svg>
