<svg width="60" height="60" viewBox="0 0 60 60" fill="none" xmlns="http://www.w3.org/2000/svg">
<path d="M52.225 25.7587C52.5403 23.633 52.4341 21.466 51.9125 19.3812C51.1988 16.5327 49.7231 13.9323 47.6437 11.8587C45.5704 9.7789 42.9699 8.30278 40.1212 7.58874C38.0364 7.06752 35.8694 6.96176 33.7437 7.27749M42.7375 24.755C42.9122 23.5948 42.8119 22.4097 42.4445 21.2954C42.0771 20.1811 41.453 19.1688 40.6225 18.34C39.7937 17.5095 38.7813 16.8854 37.667 16.518C36.5527 16.1506 35.3677 16.0503 34.2075 16.225" stroke="white" stroke-width="2" stroke-linecap="round" stroke-linejoin="round"/>
<path d="M17.97 10.9925C18.4159 10.9927 18.8537 11.1122 19.2379 11.3386C19.6221 11.565 19.9387 11.89 20.155 12.28L23.2137 17.7875C23.4111 18.1429 23.5188 18.5411 23.5275 18.9476C23.5362 19.354 23.4457 19.7564 23.2637 20.12L20.3175 26.0112C20.3175 26.0112 21.1712 30.4012 24.7437 33.9737C28.3175 37.5462 32.6925 38.3862 32.6925 38.3862L38.5825 35.44C38.9463 35.258 39.349 35.1676 39.7557 35.1765C40.1624 35.1854 40.5608 35.2935 40.9162 35.4912L46.4412 38.5625C46.8305 38.7793 47.1548 39.0961 47.3805 39.4803C47.6062 39.8644 47.7251 40.3019 47.725 40.7475V47.09C47.725 50.3187 44.725 52.6525 41.665 51.6187C35.38 49.4987 25.625 45.46 19.44 39.2775C13.2575 33.0937 9.21999 23.3375 7.09874 17.0525C6.06624 13.9925 8.39874 10.9925 11.6287 10.9925H17.97Z" fill="white" stroke="white" stroke-width="2" stroke-linejoin="round"/>
</svg>
